<svg width="20" height="20" viewBox="0 0 20 20" fill="none" xmlns="http://www.w3.org/2000/svg">
<path d="M10 10C10.4584 10 10.8507 9.83681 11.1771 9.51042C11.5035 9.18403 11.6667 8.79167 11.6667 8.33334C11.6667 7.875 11.5035 7.48264 11.1771 7.15626C10.8507 6.82987 10.4584 6.66667 10 6.66667C9.54171 6.66667 9.14935 6.82987 8.82296 7.15626C8.49657 7.48264 8.33337 7.875 8.33337 8.33334C8.33337 8.79167 8.49657 9.18403 8.82296 9.51042C9.14935 9.83681 9.54171 10 10 10ZM10 16.125C11.6945 14.5694 12.9514 13.1563 13.7709 11.8854C14.5903 10.6146 15 9.48612 15 8.5C15 6.98612 14.5174 5.74653 13.5521 4.78125C12.5868 3.81598 11.4028 3.33334 10 3.33334C8.59726 3.33334 7.41323 3.81598 6.44796 4.78125C5.48268 5.74653 5.00004 6.98612 5.00004 8.5C5.00004 9.48612 5.40976 10.6146 6.22921 11.8854C7.04865 13.1563 8.3056 14.5694 10 16.125ZM10 18.3333C7.76393 16.4306 6.09379 14.6632 4.98962 13.0313C3.88546 11.3993 3.33337 9.88889 3.33337 8.5C3.33337 6.41667 4.00351 4.75695 5.34379 3.52084C6.68407 2.28473 8.23615 1.66667 10 1.66667C11.7639 1.66667 13.316 2.28473 14.6563 3.52084C15.9966 4.75695 16.6667 6.41667 16.6667 8.5C16.6667 9.88889 16.1146 11.3993 15.0105 13.0313C13.9063 14.6632 12.2362 16.4306 10 18.3333Z" fill="#00C0E8"/>
</svg>
