<svg width="50" height="50" viewBox="0 0 50 50" fill="none" xmlns="http://www.w3.org/2000/svg">
<g filter="url(#filter0_d_32_396)">
<path d="M39.5833 16.6666C37.8472 16.6666 36.3715 16.059 35.1562 14.8437C33.9409 13.6284 33.3333 12.1527 33.3333 10.4166C33.3333 8.68051 33.9409 7.20482 35.1562 5.98954C36.3715 4.77426 37.8472 4.16663 39.5833 4.16663C41.3194 4.16663 42.7951 4.77426 44.0104 5.98954C45.2257 7.20482 45.8333 8.68051 45.8333 10.4166C45.8333 12.1527 45.2257 13.6284 44.0104 14.8437C42.7951 16.059 41.3194 16.6666 39.5833 16.6666ZM8.33329 41.6666C7.18746 41.6666 6.20656 41.2586 5.39058 40.4427C4.57461 39.6267 4.16663 38.6458 4.16663 37.5V12.5C4.16663 11.3541 4.57461 10.3732 5.39058 9.55725C6.20656 8.74128 7.18746 8.33329 8.33329 8.33329H29.375C29.2361 9.02774 29.1666 9.72218 29.1666 10.4166C29.1666 11.1111 29.2361 11.8055 29.375 12.5C29.618 13.6111 30.0173 14.6441 30.5729 15.5989C31.1284 16.5538 31.8055 17.3958 32.6041 18.125L25 22.9166L8.33329 12.5V16.6666L25 27.0833L35.9895 20.2083C36.5798 20.4166 37.1701 20.5729 37.7604 20.677C38.3507 20.7812 38.9583 20.8333 39.5833 20.8333C40.6944 20.8333 41.7882 20.6597 42.8645 20.3125C43.9409 19.9652 44.9305 19.4444 45.8333 18.75V37.5C45.8333 38.6458 45.4253 39.6267 44.6093 40.4427C43.7934 41.2586 42.8125 41.6666 41.6666 41.6666H8.33329Z" fill="#32ADE6"/>
<path d="M8.33362 8.83362H28.7828C28.7063 9.36085 28.6666 9.88845 28.6666 10.4166C28.6666 11.1446 28.7392 11.8722 28.8844 12.5983L28.8864 12.6071C29.1402 13.7673 29.5579 14.8492 30.1403 15.8502C30.6093 16.6564 31.164 17.3858 31.8004 18.0397L24.9987 22.3258L8.59827 12.0758L7.83362 11.5983V16.944L8.06799 17.0905L24.735 27.5074L24.9996 27.6735L25.2653 27.5074L36.0553 20.7565C36.5936 20.9346 37.1325 21.0741 37.6735 21.1696C38.2936 21.279 38.9307 21.3336 39.5836 21.3336C40.7477 21.3336 41.8932 21.1516 43.0182 20.7887C43.8384 20.5241 44.6095 20.1609 45.3336 19.7047V37.4996C45.3336 38.5118 44.9784 39.3665 44.2555 40.0895C43.5326 40.8122 42.6786 41.1666 41.6666 41.1666H8.33362C7.32145 41.1666 6.46673 40.8124 5.74377 40.0895C5.02082 39.3665 4.66663 38.5118 4.66663 37.4996V12.4996C4.6667 11.4877 5.02101 10.6336 5.74377 9.91077C6.46673 9.18781 7.32145 8.83362 8.33362 8.83362ZM39.5836 4.66663C41.1885 4.6667 42.5365 5.22301 43.6569 6.34338C44.7772 7.4638 45.3336 8.81169 45.3336 10.4166C45.3336 12.0216 44.7772 13.3695 43.6569 14.4899C42.5365 15.6102 41.1885 16.1666 39.5836 16.1666C37.9786 16.1666 36.6298 15.6103 35.5094 14.4899C34.3892 13.3695 33.8336 12.0215 33.8336 10.4166C33.8336 8.81177 34.3892 7.46376 35.5094 6.34338C36.6298 5.22294 37.9786 4.66663 39.5836 4.66663Z" stroke="white"/>
</g>
<defs>
<filter id="filter0_d_32_396" x="0.166626" y="4.16663" width="49.6666" height="45.5" filterUnits="userSpaceOnUse" color-interpolation-filters="sRGB">
<feFlood flood-opacity="0" result="BackgroundImageFix"/>
<feColorMatrix in="SourceAlpha" type="matrix" values="0 0 0 0 0 0 0 0 0 0 0 0 0 0 0 0 0 0 127 0" result="hardAlpha"/>
<feOffset dy="4"/>
<feGaussianBlur stdDeviation="2"/>
<feComposite in2="hardAlpha" operator="out"/>
<feColorMatrix type="matrix" values="0 0 0 0 0 0 0 0 0 0 0 0 0 0 0 0 0 0 0.25 0"/>
<feBlend mode="normal" in2="BackgroundImageFix" result="effect1_dropShadow_32_396"/>
<feBlend mode="normal" in="SourceGraphic" in2="effect1_dropShadow_32_396" result="shape"/>
</filter>
</defs>
</svg>
