<svg width="70" height="70" viewBox="0 0 70 70" fill="none" xmlns="http://www.w3.org/2000/svg">
<path d="M46.6667 11.6666H52.5001C54.0472 11.6666 55.5309 12.2812 56.6249 13.3752C57.7188 14.4692 58.3334 15.9529 58.3334 17.5V58.3333C58.3334 59.8804 57.7188 61.3641 56.6249 62.4581C55.5309 63.5521 54.0472 64.1666 52.5001 64.1666H17.5001C15.953 64.1666 14.4693 63.5521 13.3753 62.4581C12.2813 61.3641 11.6667 59.8804 11.6667 58.3333V17.5C11.6667 15.9529 12.2813 14.4692 13.3753 13.3752C14.4693 12.2812 15.953 11.6666 17.5001 11.6666H23.3334M26.2501 5.83331H43.7501C45.3609 5.83331 46.6667 7.13915 46.6667 8.74998V14.5833C46.6667 16.1941 45.3609 17.5 43.7501 17.5H26.2501C24.6393 17.5 23.3334 16.1941 23.3334 14.5833V8.74998C23.3334 7.13915 24.6393 5.83331 26.2501 5.83331Z" stroke="#00C0E8" stroke-width="2.5" stroke-linecap="round" stroke-linejoin="round"/>
</svg>
