<svg width="23" height="25" viewBox="0 0 23 25" fill="none" xmlns="http://www.w3.org/2000/svg">
<path d="M2 6.16667H4.08333M4.08333 6.16667H20.75M4.08333 6.16667V20.75C4.08333 21.3025 4.30283 21.8324 4.69353 22.2231C5.08423 22.6138 5.61413 22.8333 6.16667 22.8333H16.5833C17.1359 22.8333 17.6658 22.6138 18.0565 22.2231C18.4472 21.8324 18.6667 21.3025 18.6667 20.75V6.16667M7.20833 6.16667V4.08333C7.20833 3.5308 7.42783 3.00089 7.81853 2.61019C8.20923 2.21949 8.73913 2 9.29167 2H13.4583C14.0109 2 14.5408 2.21949 14.9315 2.61019C15.3222 3.00089 15.5417 3.5308 15.5417 4.08333V6.16667M9.29167 11.375V17.625M13.4583 11.375V17.625" stroke="white" stroke-width="4" stroke-linecap="round" stroke-linejoin="round"/>
</svg>
