<svg width="70" height="70" viewBox="0 0 70 70" fill="none" xmlns="http://www.w3.org/2000/svg">
<path d="M35.0001 35C31.7917 35 29.0452 33.8577 26.7605 31.5729C24.4758 29.2882 23.3334 26.5417 23.3334 23.3334C23.3334 20.125 24.4758 17.3785 26.7605 15.0938C29.0452 12.809 31.7917 11.6667 35.0001 11.6667C38.2084 11.6667 40.9549 12.809 43.2397 15.0938C45.5244 17.3785 46.6667 20.125 46.6667 23.3334C46.6667 26.5417 45.5244 29.2882 43.2397 31.5729C40.9549 33.8577 38.2084 35 35.0001 35ZM11.6667 58.3334V50.1667C11.6667 48.5139 12.0921 46.9948 12.9428 45.6094C13.7935 44.224 14.9237 43.1667 16.3334 42.4375C19.3473 40.9306 22.4098 39.8004 25.5209 39.0469C28.632 38.2934 31.7917 37.9167 35.0001 37.9167C38.2084 37.9167 41.3681 38.2934 44.4792 39.0469C47.5904 39.8004 50.6529 40.9306 53.6668 42.4375C55.0765 43.1667 56.2067 44.224 57.0574 45.6094C57.9081 46.9948 58.3334 48.5139 58.3334 50.1667V58.3334H11.6667ZM17.5001 52.5H52.5001V50.1667C52.5001 49.632 52.3664 49.1459 52.099 48.7084C51.8317 48.2709 51.4792 47.9306 51.0417 47.6875C48.4167 46.375 45.7674 45.3906 43.0938 44.7344C40.4202 44.0781 37.7223 43.75 35.0001 43.75C32.2779 43.75 29.5799 44.0781 26.9063 44.7344C24.2327 45.3906 21.5834 46.375 18.9584 47.6875C18.5209 47.9306 18.1685 48.2709 17.9011 48.7084C17.6338 49.1459 17.5001 49.632 17.5001 50.1667V52.5ZM35.0001 29.1667C36.6042 29.1667 37.9775 28.5955 39.1199 27.4531C40.2622 26.3108 40.8334 24.9375 40.8334 23.3334C40.8334 21.7292 40.2622 20.3559 39.1199 19.2136C37.9775 18.0712 36.6042 17.5 35.0001 17.5C33.3959 17.5 32.0227 18.0712 30.8803 19.2136C29.7379 20.3559 29.1667 21.7292 29.1667 23.3334C29.1667 24.9375 29.7379 26.3108 30.8803 27.4531C32.0227 28.5955 33.3959 29.1667 35.0001 29.1667Z" fill="#00C0E8"/>
</svg>
